# xmcd CD database file
#
# Track frame offsets:
#	150
#	29803
#	60279
#	88243
#	115661
#	147977
#	176623
#	204669
#	232809
#
# Disc length: 3544 seconds
#
# Revision: 1
# Processed by: cddbd v1.5.1PL2 Copyright (c) Steve Scherf et al.
# Submitted via: CDex 1.51
#
DISCID=780dd609
DTITLE=Current Value - Frequency Hunt
DYEAR=1998
DGENRE=Jungle
TTITLE0=Frequency Hunt
TTITLE1=Knifesharping
TTITLE2=Dark Halls
TTITLE3=Ever Thinking of It
TTITLE4=Coron 174
TTITLE5=Even and Odd
TTITLE6=The Labyrinth
TTITLE7=Metamorse
TTITLE8=Asexual Enemy
EXTD=YEAR: 1998
EXTT0=
EXTT1=
EXTT2=
EXTT3=
EXTT4=
EXTT5=
EXTT6=
EXTT7=
EXTT8=
PLAYORDER=
